<svg xmlns="http://www.w3.org/2000/svg" version="1.1" xmlns:xlink="http://www.w3.org/1999/xlink" width="40" height="40"><svg width="40" height="40" viewBox="0 0 40 40" fill="none" xmlns="http://www.w3.org/2000/svg">
<rect x="1.26768" y="1.29136" width="37.4172" height="37.4172" rx="2.19697" stroke="#F0F0F0" stroke-width="1.46465"></rect>
<g clip-path="url(#clip0_2151_4987)">
<path d="M37.6888 17.8853C37.8348 17.8853 37.9531 18.0036 37.9531 18.1496L37.9531 19.7352C37.9531 19.8812 37.8348 19.9995 37.6888 19.9995L31.0104 19.9995C30.7374 19.9995 30.5806 20.4603 30.731 20.6882C30.951 21.0215 31.079 21.4207 31.0791 21.8501C31.0791 23.0181 30.1328 23.9653 28.9648 23.9653C27.7968 23.9653 26.8496 23.0181 26.8496 21.8501C26.8497 21.4206 26.978 21.0212 27.1982 20.6878C27.3486 20.46 27.1919 19.9995 26.9189 19.9995L20.2409 19.9995C20.0949 19.9995 19.9766 19.8812 19.9766 19.7352L19.9766 18.1496C19.9766 18.0036 20.0949 17.8853 20.2409 17.8853L37.6888 17.8853Z" fill="#FF6A14"></path>
<path d="M37.9531 19.9969C37.9531 19.9978 37.9528 19.9986 37.9521 19.9993C37.9515 19.9999 37.9507 20.0002 37.9498 20.0002H19.9791C19.9781 20.0002 19.9773 19.9997 19.9768 19.9988C19.9767 19.9985 19.9766 19.9981 19.9766 19.9977V13.0573C19.9766 12.7843 20.4372 12.6276 20.665 12.778C20.9983 12.9981 21.3976 13.1262 21.8271 13.1262C22.9951 13.1262 23.9423 12.1799 23.9424 11.012C23.9424 9.84398 22.9951 8.89676 21.8271 8.89673C21.3975 8.89673 20.9981 9.02506 20.6647 9.24536C20.4369 9.39585 19.9766 9.23918 19.9766 8.96619V2.02535C19.9766 2.02491 19.9767 2.02448 19.9771 2.02417C19.9774 2.02386 19.9778 2.02368 19.9782 2.02368H37.6888C37.8348 2.02368 37.9531 2.14204 37.9531 2.28804V19.9969Z" fill="#FF6A14"></path>
</g>
<g clip-path="url(#clip1_2151_4987)">
<path d="M22.0918 37.7122C22.0918 37.8582 21.9734 37.9766 21.8274 37.9766L20.2409 37.9766C20.0949 37.9766 19.9766 37.8582 19.9766 37.7122L19.9766 31.0337C19.9766 30.7608 19.5167 30.6041 19.2889 30.7544C18.9556 30.9744 18.5563 31.1024 18.127 31.1025C16.959 31.1025 16.0118 30.1562 16.0117 28.9883C16.0117 27.8203 16.9589 26.873 18.127 26.873C18.5564 26.8731 18.9558 27.0014 19.2893 27.2216C19.517 27.3719 19.9766 27.2154 19.9766 26.9425L19.9766 20.2644C19.9766 20.1184 20.0949 20 20.2409 20L21.8274 20C21.9734 20 22.0918 20.1184 22.0918 20.2644L22.0918 37.7122Z" fill="#7AD97D"></path>
<path d="M19.9799 37.9766C19.979 37.9766 19.9782 37.9762 19.9775 37.9756C19.9769 37.975 19.9766 37.9741 19.9766 37.9732L19.9766 20.0026C19.9766 20.0016 19.9771 20.0007 19.978 20.0003C19.9783 20.0001 19.9787 20 19.9791 20L26.9195 20C27.1926 20 27.3493 20.4606 27.1988 20.6884C26.9787 21.0217 26.8506 21.421 26.8506 21.8506C26.8506 23.0185 27.797 23.9657 28.9648 23.9658C30.1328 23.9658 31.08 23.0185 31.0801 21.8506C31.0801 21.421 30.9518 21.0215 30.7315 20.6881C30.581 20.4603 30.7376 20 31.0106 20L37.9515 20C37.9519 20 37.9523 20.0002 37.9526 20.0005C37.9529 20.0008 37.9531 20.0012 37.9531 20.0017L37.9531 37.7122C37.9531 37.8582 37.8348 37.9766 37.6888 37.9766L19.9799 37.9766Z" fill="#7AD97D"></path>
</g>
<g clip-path="url(#clip2_2151_4987)">
<path d="M2.26436 22.1146C2.11835 22.1146 2 21.9963 2 21.8503L2 20.2647C2 20.1187 2.11836 20.0004 2.26436 20.0004L8.94272 20.0004C9.21576 20.0004 9.37258 19.5396 9.22217 19.3117C9.00218 18.9784 8.8741 18.5792 8.87402 18.1498C8.87402 16.9818 9.82036 16.0346 10.9883 16.0345C12.1563 16.0345 13.1035 16.9818 13.1035 18.1498C13.1034 18.5793 12.9752 18.9787 12.755 19.3121C12.6045 19.5399 12.7613 20.0004 13.0343 20.0004L19.7122 20.0004C19.8582 20.0004 19.9766 20.1187 19.9766 20.2647L19.9766 21.8503C19.9766 21.9963 19.8582 22.1146 19.7122 22.1146L2.26436 22.1146Z" fill="#FFC945"></path>
<path d="M2 20.003C2 20.0021 2.00035 20.0012 2.00098 20.0006C2.0016 20 2.00245 19.9996 2.00333 19.9996L19.974 19.9996C19.975 19.9996 19.9759 20.0002 19.9763 20.001C19.9765 20.0014 19.9766 20.0018 19.9766 20.0022L19.9766 26.9426C19.9766 27.2156 19.516 27.3724 19.2881 27.2219C18.9548 27.0018 18.5555 26.8737 18.126 26.8737C16.9581 26.8738 16.0118 27.82 16.0117 28.9879C16.0117 30.1559 16.9581 31.1031 18.126 31.1031C18.5556 31.1031 18.9551 30.9748 19.2885 30.7545C19.5163 30.604 19.9766 30.7606 19.9766 31.0336L19.9766 37.9745C19.9766 37.975 19.9764 37.9754 19.9761 37.9757C19.9758 37.976 19.9753 37.9762 19.9749 37.9762L2.26436 37.9762C2.11836 37.9762 2 37.8578 2 37.7118L2 20.003Z" fill="#FFC945"></path>
</g>
<g clip-path="url(#clip3_2151_4987)">
<path d="M17.8613 2.28779C17.8613 2.14179 17.9797 2.02344 18.1257 2.02344L19.7112 2.02344C19.8572 2.02344 19.9756 2.14179 19.9756 2.28779L19.9756 8.96621C19.9756 9.23925 20.4363 9.39603 20.6642 9.24561C20.9974 9.02558 21.3967 8.89749 21.8262 8.89746C22.9941 8.89746 23.9413 9.84377 23.9414 11.0117C23.9414 12.1797 22.9942 13.127 21.8262 13.127C21.3966 13.1269 20.9972 12.9986 20.6638 12.7783C20.436 12.6279 19.9756 12.7846 19.9756 13.0576L19.9756 19.7356C19.9756 19.8816 19.8572 20 19.7112 20L18.1257 20C17.9797 20 17.8613 19.8816 17.8613 19.7356L17.8613 2.28779Z" fill="white"></path>
<path d="M19.9732 2.02344C19.9741 2.02344 19.975 2.02379 19.9756 2.02441C19.9762 2.02504 19.9766 2.02589 19.9766 2.02677L19.9766 19.9974C19.9766 19.9984 19.976 19.9993 19.9751 19.9997C19.9748 19.9999 19.9744 20 19.974 20L13.0337 20C12.7606 20 12.6039 19.5394 12.7543 19.3115C12.9744 18.9782 13.1025 18.579 13.1025 18.1494C13.1025 16.9815 12.1562 16.0342 10.9883 16.0342C9.8203 16.0342 8.87308 16.9814 8.87305 18.1494C8.87305 18.579 9.00139 18.9785 9.2217 19.3119C9.3722 19.5397 9.21553 20 8.94254 20L2.00167 20C2.00122 20 2.0008 19.9998 2.00049 19.9995C2.00018 19.9992 2 19.9988 2 19.9983L2 2.28779C2 2.14179 2.11836 2.02344 2.26436 2.02344L19.9732 2.02344Z" fill="white"></path>
</g>
<defs>
<clipPath id="SvgjsClipPath1105">
<path d="M19.9766 2.02368H36.4882C37.2971 2.02368 37.9529 2.67943 37.9529 3.48833V23.9653H19.9766V2.02368Z" fill="white"></path>
</clipPath>
<clipPath id="SvgjsClipPath1104">
<path d="M37.9531 20L37.9531 36.5117C37.9531 37.3206 37.2974 37.9763 36.4885 37.9763L16.0115 37.9763L16.0115 20L37.9531 20Z" fill="white"></path>
</clipPath>
<clipPath id="SvgjsClipPath1103">
<path d="M19.9766 37.9762L3.46491 37.9762C2.65601 37.9762 2.00026 37.3205 2.00026 36.5115L2.00026 16.0345L19.9766 16.0345L19.9766 37.9762Z" fill="white"></path>
</clipPath>
<clipPath id="SvgjsClipPath1102">
<path d="M2 20L2 3.48835C2 2.67945 2.65575 2.0237 3.46465 2.0237L23.9417 2.0237L23.9417 20L2 20Z" fill="white"></path>
</clipPath>
</defs>
</svg><style>@media (prefers-color-scheme: light) { :root { filter: none; } }
@media (prefers-color-scheme: dark) { :root { filter: none; } }
</style></svg>