<svg width="122" height="22" viewBox="0 0 122 22" fill="none" xmlns="http://www.w3.org/2000/svg">
<path d="M9.81365 3.35479C10.113 2.43348 11.4164 2.43347 11.7158 3.35478L12.957 7.17498C13.0909 7.587 13.4748 7.86596 13.9081 7.86596H17.9249C18.8936 7.86596 19.2964 9.10558 18.5126 9.67498L15.263 12.036C14.9125 12.2906 14.7659 12.742 14.8997 13.154L16.141 16.9742C16.4403 17.8955 15.3859 18.6617 14.6021 18.0923L11.3525 15.7312C11.002 15.4766 10.5274 15.4766 10.1769 15.7312L6.92727 18.0923C6.14356 18.6617 5.08908 17.8955 5.38843 16.9742L6.62968 13.154C6.76356 12.742 6.6169 12.2906 6.26641 12.036L3.01676 9.67498C2.23305 9.10558 2.63582 7.86596 3.60455 7.86596H7.62134C8.05456 7.86596 8.43852 7.587 8.57239 7.17498L9.81365 3.35479Z" fill="#FF6A14"/>
<path d="M34.9313 3.35473C35.2307 2.43341 36.5341 2.43341 36.8334 3.35472L38.0747 7.17492C38.2086 7.58694 38.5925 7.8659 39.0258 7.8659H43.0425C44.0113 7.8659 44.414 9.10552 43.6303 9.67492L40.3807 12.0359C40.0302 12.2906 39.8835 12.7419 40.0174 13.154L41.2587 16.9742C41.558 17.8955 40.5035 18.6616 39.7198 18.0922L36.4702 15.7312C36.1197 15.4765 35.6451 15.4765 35.2946 15.7312L32.0449 18.0922C31.2612 18.6616 30.2068 17.8955 30.5061 16.9742L31.7474 13.154C31.8812 12.7419 31.7346 12.2906 31.3841 12.0359L28.1344 9.67492C27.3507 9.10552 27.7535 7.8659 28.7222 7.8659H32.739C33.1722 7.8659 33.5562 7.58694 33.6901 7.17492L34.9313 3.35473Z" fill="#FF6A14"/>
<path d="M60.049 3.35473C60.3484 2.43341 61.6518 2.43341 61.9511 3.35472L63.1924 7.17492C63.3262 7.58694 63.7102 7.8659 64.1434 7.8659H68.1602C69.1289 7.8659 69.5317 9.10552 68.748 9.67492L65.4984 12.0359C65.1479 12.2906 65.0012 12.7419 65.1351 13.154L66.3763 16.9742C66.6757 17.8955 65.6212 18.6616 64.8375 18.0922L61.5878 15.7312C61.2374 15.4765 60.7628 15.4765 60.4123 15.7312L57.1626 18.0922C56.3789 18.6616 55.3244 17.8955 55.6238 16.9742L56.865 13.154C56.9989 12.7419 56.8523 12.2906 56.5018 12.0359L53.2521 9.67492C52.4684 9.10552 52.8712 7.8659 53.8399 7.8659H57.8567C58.2899 7.8659 58.6739 7.58694 58.8077 7.17492L60.049 3.35473Z" fill="#FF6A14"/>
<path d="M85.1667 3.35473C85.466 2.43341 86.7694 2.43341 87.0688 3.35472L88.31 7.17492C88.4439 7.58694 88.8279 7.8659 89.2611 7.8659H93.2779C94.2466 7.8659 94.6494 9.10552 93.8657 9.67492L90.616 12.0359C90.2655 12.2906 90.1189 12.7419 90.2528 13.154L91.494 16.9742C91.7934 17.8955 90.7389 18.6616 89.9552 18.0922L86.7055 15.7312C86.355 15.4765 85.8804 15.4765 85.5299 15.7312L82.2803 18.0922C81.4966 18.6616 80.4421 17.8955 80.7415 16.9742L81.9827 13.154C82.1166 12.7419 81.9699 12.2906 81.6194 12.0359L78.3698 9.67492C77.5861 9.10552 77.9889 7.8659 78.9576 7.8659H82.9744C83.4076 7.8659 83.7915 7.58694 83.9254 7.17492L85.1667 3.35473Z" fill="#FF6A14"/>
<path d="M110.284 3.35473C110.584 2.43341 111.887 2.43341 112.186 3.35472L113.428 7.17492C113.562 7.58694 113.946 7.8659 114.379 7.8659H118.396C119.364 7.8659 119.767 9.10552 118.983 9.67492L115.734 12.0359C115.383 12.2906 115.237 12.7419 115.37 13.154L116.612 16.9742C116.911 17.8955 115.857 18.6616 115.073 18.0922L111.823 15.7312C111.473 15.4765 110.998 15.4765 110.648 15.7312L107.398 18.0922C106.614 18.6616 105.56 17.8955 105.859 16.9742L107.1 13.154C107.234 12.7419 107.088 12.2906 106.737 12.0359L103.487 9.67492C102.704 9.10552 103.107 7.8659 104.075 7.8659H108.092C108.525 7.8659 108.909 7.58694 109.043 7.17492L110.284 3.35473Z" fill="#FF6A14"/>
</svg>
