<svg width="15" height="15" viewBox="0 0 15 15" fill="none" xmlns="http://www.w3.org/2000/svg">
<path d="M11.5635 7.57501C11.5635 7.70834 11.5425 7.83334 11.5005 7.95001C11.4592 8.06668 11.3885 8.17501 11.2885 8.27501L6.6635 12.9C6.48017 13.0833 6.25083 13.1707 5.9755 13.162C5.70083 13.154 5.47183 13.0583 5.2885 12.875C5.10517 12.6917 5.0135 12.4583 5.0135 12.175C5.0135 11.8917 5.10517 11.6583 5.2885 11.475L9.1885 7.57501L5.2635 3.65001C5.08017 3.46668 4.9925 3.23734 5.0005 2.96201C5.00917 2.68734 5.10517 2.45834 5.2885 2.27501C5.47184 2.09168 5.70517 2.00001 5.9885 2.00001C6.27184 2.00001 6.50517 2.09168 6.6885 2.27501L11.2885 6.87501C11.3885 6.97501 11.4592 7.08334 11.5005 7.20001C11.5425 7.31668 11.5635 7.44168 11.5635 7.57501Z" fill="black"/>
</svg>
