<svg width="15" height="16" viewBox="0 0 15 16" fill="none" xmlns="http://www.w3.org/2000/svg">
<path d="M3.4365 8.07501C3.4365 8.20834 3.4575 8.33334 3.4995 8.45001C3.54083 8.56668 3.6115 8.67501 3.7115 8.77501L8.3365 13.4C8.51983 13.5833 8.74917 13.6707 9.0245 13.662C9.29917 13.654 9.52817 13.5583 9.7115 13.375C9.89483 13.1917 9.9865 12.9583 9.9865 12.675C9.9865 12.3917 9.89483 12.1583 9.7115 11.975L5.8115 8.07501L9.7365 4.15001C9.91983 3.96668 10.0075 3.73734 9.9995 3.46201C9.99083 3.18734 9.89483 2.95834 9.7115 2.77501C9.52816 2.59168 9.29483 2.50001 9.0115 2.50001C8.72816 2.50001 8.49483 2.59168 8.3115 2.77501L3.7115 7.37501C3.6115 7.47501 3.54083 7.58334 3.4995 7.70001C3.4575 7.81668 3.4365 7.94168 3.4365 8.07501Z" fill="black"/>
</svg>
