<svg width="24" height="24" viewBox="0 0 24 24" fill="none" xmlns="http://www.w3.org/2000/svg">
<path d="M6.12123 10.871C5.9088 10.385 5.51198 10.0032 5.01809 9.80978C4.52419 9.61632 3.97367 9.62698 3.48764 9.83942C3.00161 10.0519 2.61987 10.4487 2.42641 10.9426C2.23295 11.4365 2.24361 11.987 2.45605 12.473C2.45605 12.473 2.45605 12.473 2.45605 12.473C2.69604 13.0221 2.92944 13.5546 3.16069 14.0805C4.13597 16.233 4.95623 18.3546 6.16193 20.5204C6.1164 20.4312 6.11591 20.4252 6.10844 20.4095C6.27024 20.7935 6.50858 21.281 6.81323 21.7406C7.15662 22.1983 7.43244 22.7658 8.56678 23.2903C9.13136 23.5506 10.1049 23.556 10.7113 23.2431C11.3277 22.9517 11.652 22.5807 11.8856 22.2955C12.3477 21.6952 12.539 21.2274 12.7319 20.7599C12.7384 20.7436 12.7451 20.7268 12.752 20.7097C14.9222 15.976 17.7688 10.8871 20.2153 5.89723C20.6469 5.04034 21.0742 4.17891 21.4964 3.31442C21.7532 2.78858 22.0081 2.2616 22.2611 1.73349C22.3708 1.5041 22.4024 1.24005 22.3355 0.991316C22.2687 0.742653 22.1108 0.530851 21.8936 0.40078C21.6764 0.27071 21.4151 0.231469 21.1643 0.289968C20.9135 0.348396 20.6956 0.50095 20.5452 0.705952C20.5452 0.705952 20.5452 0.705952 20.5452 0.705952C20.1991 1.17831 19.8549 1.6518 19.5126 2.12643C18.9498 2.90672 18.3921 3.69008 17.8396 4.47651C14.6224 9.17966 11.5657 13.7144 9.04276 19.2125C9.03281 19.2372 9.023 19.2617 9.01332 19.2861C8.91227 19.5503 8.7778 19.7849 8.7542 19.8066C8.7513 19.8187 8.78073 19.7366 9.04479 19.6068C9.29981 19.4621 9.85137 19.4687 10.057 19.5782C10.4664 19.7927 10.2368 19.7113 10.147 19.5302C10.0212 19.3366 9.90959 19.1318 9.76581 18.7897C9.75689 18.7707 9.75535 18.7624 9.70915 18.6719C8.65984 16.8213 7.77529 14.5777 6.82226 12.4702C6.5924 11.9475 6.36017 11.4177 6.12123 10.871Z" fill="#7AD97D"/>
</svg>
