<svg width="24" height="25" viewBox="0 0 24 25" fill="none" xmlns="http://www.w3.org/2000/svg">
<path d="M20 22.0996H6C4.89543 22.0996 4 21.2042 4 20.0996M4 20.0996C4 18.995 4.89543 18.0996 6 18.0996H20V6.09961C20 4.21399 20 3.27118 19.4142 2.6854C18.8284 2.09961 17.8856 2.09961 16 2.09961H10C7.17157 2.09961 5.75736 2.09961 4.87868 2.97829C4 3.85697 4 5.27118 4 8.09961V20.0996Z" stroke="white" stroke-width="1.5" stroke-linecap="round" stroke-linejoin="round"/>
<path d="M19.5 18.0996C19.5 18.0996 18.5 18.8624 18.5 20.0996C18.5 21.3368 19.5 22.0996 19.5 22.0996" stroke="white" stroke-width="1.5" stroke-linecap="round" stroke-linejoin="round"/>
<path d="M9 2.09961V10.0996L12 7.09961L15 10.0996V2.09961" stroke="white" stroke-width="1.5" stroke-linecap="round" stroke-linejoin="round"/>
</svg>
