<svg width="20" height="21" viewBox="0 0 20 21" fill="none" xmlns="http://www.w3.org/2000/svg">
<path d="M17.5438 10.0438L17.7757 8.66029C17.9273 7.75568 18.0032 7.30338 17.7604 7.00692C17.5176 6.71045 17.0713 6.71045 16.1788 6.71045H3.82153C2.929 6.71045 2.48275 6.71045 2.23994 7.00692C1.99714 7.30338 2.07295 7.75568 2.2246 8.66029L3.22757 14.6433C3.56 16.6264 3.72622 17.6179 4.40487 18.2059C5.08352 18.7938 6.0618 18.7938 8.01835 18.7938H10.0002" stroke="#FF6A14" stroke-width="1.5" stroke-linecap="round"/>
<path d="M11.6665 15.4605H18.3332M14.9998 18.7939V12.1272" stroke="#FF6A14" stroke-width="1.5" stroke-linecap="round"/>
<path d="M14.5832 6.71053C14.5832 4.17922 12.5312 2.1272 9.99984 2.1272C7.46853 2.1272 5.4165 4.17922 5.4165 6.71053" stroke="#FF6A14" stroke-width="1.5"/>
</svg>
