<svg width="20" height="21" viewBox="0 0 20 21" fill="none" xmlns="http://www.w3.org/2000/svg">
<path d="M17.5438 9.95565L17.7757 8.57216C17.9273 7.66755 18.0032 7.21525 17.7604 6.91878C17.5176 6.62231 17.0713 6.62231 16.1788 6.62231H3.82153C2.929 6.62231 2.48275 6.62231 2.23994 6.91878C1.99714 7.21525 2.07295 7.66755 2.2246 8.57216L3.22757 14.5551C3.56 16.5382 3.72622 17.5297 4.40487 18.1177C5.08352 18.7056 6.0618 18.7056 8.01835 18.7056H10.0002" stroke="white" stroke-width="1.5" stroke-linecap="round"/>
<path d="M11.6665 15.3723H18.3332M14.9998 18.7056V12.0389" stroke="white" stroke-width="1.5" stroke-linecap="round"/>
<path d="M14.5832 6.62227C14.5832 4.09097 12.5312 2.03894 9.99984 2.03894C7.46853 2.03894 5.4165 4.09097 5.4165 6.62227" stroke="white" stroke-width="1.5"/>
</svg>
