<svg width="25" height="25" viewBox="0 0 25 25" fill="none" xmlns="http://www.w3.org/2000/svg">
<path d="M6.62207 14.4604C8.83121 14.4604 10.6221 16.2513 10.6221 18.4604C10.6221 20.6696 8.83121 22.4604 6.62207 22.4604C4.41293 22.4604 2.62207 20.6696 2.62207 18.4604C2.62207 16.2513 4.41293 14.4604 6.62207 14.4604ZM20.6221 14.4604C21.7266 14.4604 22.6221 15.3559 22.6221 16.4604V20.4604C22.6221 21.565 21.7266 22.4604 20.6221 22.4604H16.6221C15.5175 22.4604 14.6221 21.565 14.6221 20.4604V16.4604C14.6221 15.3559 15.5175 14.4604 16.6221 14.4604H20.6221ZM8.62207 2.46045C9.72664 2.46045 10.6221 3.35588 10.6221 4.46045V8.46045C10.6221 9.56502 9.72664 10.4604 8.62207 10.4604H4.62207C3.5175 10.4604 2.62207 9.56502 2.62207 8.46045V4.46045C2.62207 3.35588 3.5175 2.46045 4.62207 2.46045H8.62207ZM18.6221 2.46045C20.8312 2.46045 22.6221 4.25131 22.6221 6.46045C22.6221 8.66959 20.8312 10.4604 18.6221 10.4604C16.4129 10.4604 14.6221 8.66959 14.6221 6.46045C14.6221 4.25131 16.4129 2.46045 18.6221 2.46045Z" fill="white"/>
</svg>
