<svg width="24" height="25" viewBox="0 0 24 25" fill="none" xmlns="http://www.w3.org/2000/svg">
<path d="M16.4249 5.19347L17.4149 4.20348C18.2351 3.38335 19.5648 3.38335 20.3849 4.20348C21.205 5.02362 21.205 6.35331 20.3849 7.17345L19.3949 8.16344M16.4249 5.19347L9.76558 11.8528C9.25807 12.3604 8.89804 12.9962 8.72397 13.6925L8 16.5884L10.8959 15.8644C11.5922 15.6904 12.228 15.3303 12.7356 14.8228L19.3949 8.16344M16.4249 5.19347L19.3949 8.16344Z" fill="white"/>
<path d="M16.4249 5.19347L17.4149 4.20348C18.2351 3.38335 19.5648 3.38335 20.3849 4.20348C21.205 5.02362 21.205 6.35331 20.3849 7.17345L19.3949 8.16344M16.4249 5.19347L9.76558 11.8528C9.25807 12.3604 8.89804 12.9962 8.72397 13.6925L8 16.5884L10.8959 15.8644C11.5922 15.6904 12.228 15.3303 12.7356 14.8228L19.3949 8.16344M16.4249 5.19347L19.3949 8.16344" stroke="white" stroke-width="1.5" stroke-linejoin="round"/>
<path d="M18.9999 14.0884C18.9999 17.3759 18.9999 19.0196 18.092 20.126C17.9258 20.3285 17.7401 20.5142 17.5375 20.6804C16.4312 21.5884 14.7874 21.5884 11.4999 21.5884H11C7.22876 21.5884 5.34316 21.5884 4.17159 20.4168C3.00003 19.2453 3 17.3596 3 13.5884V13.0884C3 9.8009 3 8.15717 3.90794 7.05082C4.07417 6.84828 4.2599 6.66255 4.46244 6.49632C5.56879 5.58838 7.21252 5.58838 10.5 5.58838" stroke="white" stroke-width="1.5" stroke-linecap="round" stroke-linejoin="round"/>
<line x1="15.7071" y1="4.29289" x2="20.7071" y2="9.29289" stroke="#FF6A14" stroke-width="2"/>
</svg>
