<svg width="24" height="24" viewBox="0 0 24 24" fill="none" xmlns="http://www.w3.org/2000/svg">
<path d="M21 4.95V8.75L11.5 12.55L2 8.75V4.95C2 4.69804 2.10009 4.45641 2.27825 4.27825C2.45641 4.10009 2.69804 4 2.95 4H20.05C20.302 4 20.5436 4.10009 20.7218 4.27825C20.8999 4.45641 21 4.69804 21 4.95ZM2 10.7963V18.25C2 18.502 2.10009 18.7436 2.27825 18.9218C2.45641 19.0999 2.69804 19.2 2.95 19.2H20.05C20.302 19.2 20.5436 19.0999 20.7218 18.9218C20.8999 18.7436 21 18.502 21 18.25V10.7963L11.5 14.5963L2 10.7963Z" fill="#FF6A14"/>
</svg>
