<svg width="161" height="43" viewBox="0 0 161 43" fill="none" xmlns="http://www.w3.org/2000/svg">
<rect x="1.19888" y="0.994289" width="40.9324" height="40.9324" rx="2.40336" stroke="#F0F0F0" stroke-width="1.60224"/>
<g clip-path="url(#clip0_31_252)">
<path d="M41.0409 19.147C41.2006 19.147 41.3301 19.2764 41.3301 19.4362L41.3301 21.1713C41.3301 21.331 41.2006 21.4604 41.0409 21.4604L33.7354 21.4604C33.4368 21.4604 33.2654 21.9639 33.43 22.213C33.6711 22.5778 33.8115 23.0148 33.8115 23.4849C33.8115 24.7624 32.7755 25.7981 31.498 25.7983C30.2203 25.7983 29.1836 24.7625 29.1836 23.4849C29.1836 23.0148 29.324 22.5776 29.565 22.2127C29.7296 21.9636 29.5582 21.4604 29.2597 21.4604L21.9542 21.4604C21.7945 21.4604 21.665 21.331 21.665 21.1713L21.665 19.4362C21.665 19.2764 21.7945 19.147 21.9542 19.147L41.0409 19.147Z" fill="#FF6A14"/>
<path d="M41.3301 21.4588C41.3301 21.4592 41.3299 21.4596 41.3296 21.46C41.3293 21.4603 41.3289 21.4604 41.3284 21.4604H21.6667C21.6663 21.4604 21.6658 21.4603 21.6655 21.46C21.6652 21.4596 21.665 21.4592 21.665 21.4588V13.8658C21.665 13.5672 22.1685 13.3958 22.4176 13.5604C22.7824 13.8015 23.2194 13.9419 23.6895 13.9419C24.967 13.9419 26.0027 12.9059 26.0029 11.6284C26.0029 10.3507 24.9672 9.31398 23.6895 9.31396C23.2194 9.31396 22.7823 9.45435 22.4173 9.69537C22.1682 9.85991 21.665 9.68855 21.665 9.38999V1.79708C21.665 1.79664 21.6652 1.79621 21.6655 1.7959C21.6658 1.79559 21.6663 1.79541 21.6667 1.79541H41.0409C41.2006 1.79541 41.3301 1.92489 41.3301 2.0846V21.4588Z" fill="#FF6A14"/>
</g>
<g clip-path="url(#clip1_31_252)">
<path d="M23.9785 40.8363C23.9785 40.996 23.849 41.1255 23.6893 41.1255L21.9542 41.1255C21.7945 41.1255 21.665 40.996 21.665 40.8363L21.665 33.5308C21.665 33.2322 21.1616 33.0608 20.9124 33.2255C20.5476 33.4665 20.1106 33.6069 19.6406 33.6069C18.3631 33.6069 17.3274 32.571 17.3271 31.2935C17.3271 30.0157 18.3629 28.979 19.6406 28.979C20.1106 28.979 20.5478 29.1194 20.9127 29.3604C21.1618 29.5249 21.665 29.3536 21.665 29.055L21.665 21.7496C21.665 21.5899 21.7945 21.4604 21.9542 21.4604L23.6893 21.4604C23.849 21.4604 23.9785 21.5899 23.9785 21.7496L23.9785 40.8363Z" fill="#7AD97D"/>
<path d="M21.6667 41.1255C21.6663 41.1255 21.6658 41.1253 21.6655 41.125C21.6652 41.1247 21.665 41.1243 21.665 41.1238L21.665 21.4621C21.665 21.4617 21.6652 21.4612 21.6655 21.4609C21.6658 21.4606 21.6663 21.4604 21.6667 21.4604L29.2598 21.4604C29.5584 21.4604 29.7299 21.964 29.5654 22.2132C29.3247 22.578 29.1846 23.0149 29.1846 23.4849C29.1846 24.7626 30.2203 25.7983 31.498 25.7983C32.7756 25.7981 33.8115 24.7624 33.8115 23.4849C33.8115 23.0148 33.6712 22.5777 33.4302 22.2128C33.2656 21.9637 33.437 21.4604 33.7355 21.4604L41.3284 21.4604C41.3289 21.4604 41.3293 21.4606 41.3296 21.4609C41.3299 21.4613 41.3301 21.4617 41.3301 21.4621L41.3301 40.8363C41.3301 40.996 41.2006 41.1255 41.0409 41.1255L21.6667 41.1255Z" fill="#7AD97D"/>
</g>
<g clip-path="url(#clip2_31_252)">
<path d="M2.28919 23.7739C2.12948 23.7739 2 23.6444 2 23.4847L2 21.7496C2 21.5899 2.12948 21.4604 2.28919 21.4604L9.59478 21.4604C9.8934 21.4604 10.0649 20.9569 9.90038 20.7077C9.65965 20.3429 9.51953 19.906 9.51953 19.436C9.51958 18.1583 10.5553 17.1226 11.833 17.1226C13.1105 17.1228 14.1464 18.1585 14.1465 19.436C14.1465 19.9061 14.0061 20.3432 13.7651 20.7081C13.6006 20.9572 13.7719 21.4604 14.0705 21.4604L21.3758 21.4604C21.5356 21.4604 21.665 21.5899 21.665 21.7496L21.665 23.4847C21.665 23.6445 21.5356 23.7739 21.3758 23.7739L2.28919 23.7739Z" fill="#FFC945"/>
<path d="M2 21.4621C2 21.4617 2.00018 21.4612 2.00049 21.4609C2.0008 21.4606 2.00123 21.4604 2.00167 21.4604L21.6634 21.4604C21.6638 21.4604 21.6642 21.4606 21.6646 21.4609C21.6649 21.4613 21.665 21.4617 21.665 21.4621L21.665 29.0552C21.665 29.3538 21.1616 29.5252 20.9125 29.3605C20.5477 29.1195 20.1107 28.979 19.6406 28.979C18.363 28.9791 17.3271 30.0158 17.3271 31.2935C17.3274 32.5709 18.3631 33.6068 19.6406 33.6069C20.1107 33.6069 20.5478 33.4665 20.9128 33.2255C21.1619 33.0609 21.665 33.2323 21.665 33.5309L21.665 41.1238C21.665 41.1243 21.6649 41.1247 21.6646 41.125C21.6642 41.1253 21.6638 41.1255 21.6634 41.1255L2.28919 41.1255C2.12947 41.1255 2 40.996 2 40.8363L2 21.4621Z" fill="#FFC945"/>
</g>
<g clip-path="url(#clip3_31_252)">
<path d="M19.3516 2.0846C19.3516 1.92489 19.481 1.79541 19.6408 1.79541L21.3758 1.79541C21.5356 1.79541 21.665 1.92489 21.665 2.0846L21.665 9.39023C21.665 9.68884 22.1684 9.86019 22.4176 9.69554C22.7824 9.45444 23.2194 9.31396 23.6895 9.31396C24.9669 9.31413 26.0027 10.35 26.0029 11.6274C26.0029 12.9051 24.967 13.9417 23.6895 13.9419C23.2194 13.9419 22.7822 13.8015 22.4173 13.5604C22.1682 13.3958 21.665 13.5672 21.665 13.8657L21.665 21.1713C21.665 21.331 21.5356 21.4604 21.3758 21.4604L19.6408 21.4604C19.481 21.4604 19.3516 21.331 19.3516 21.1713L19.3516 2.0846Z" fill="white"/>
<path d="M21.6634 1.79541C21.6638 1.79541 21.6642 1.79559 21.6646 1.7959C21.6649 1.79621 21.665 1.79664 21.665 1.79708L21.665 21.4588C21.665 21.4592 21.6649 21.4596 21.6646 21.46C21.6642 21.4603 21.6638 21.4605 21.6634 21.4605L14.0703 21.4604C13.7717 21.4604 13.6003 20.957 13.765 20.7079C14.006 20.3431 14.1465 19.9061 14.1465 19.436C14.1464 18.1583 13.1097 17.1226 11.832 17.1226C10.5545 17.1228 9.51859 18.1585 9.51855 19.436C9.51855 19.9061 9.65894 20.3432 9.89996 20.7081C10.0645 20.9573 9.89314 21.4604 9.59458 21.4604L2.00167 21.4604C2.00123 21.4604 2.0008 21.4603 2.00049 21.46C2.00018 21.4596 2 21.4592 2 21.4588L2 2.0846C2 1.92488 2.12948 1.79541 2.28919 1.79541L21.6634 1.79541Z" fill="white"/>
</g>
<path d="M77.3168 22.8439H66.4698L64.7669 27.0272H58.3994L68.7281 1.11304H75.0585L85.3872 27.0272H79.0197L77.3168 22.8439ZM75.3547 17.7722L71.9118 9.29452L68.4319 17.7722H75.3547Z" fill="#343434"/>
<path d="M92.8014 17.402L82.1765 1.11304H89.2844L96.0591 11.8119L102.501 1.11304H109.09L93.6528 27.0272H87.0632L92.8014 17.402Z" fill="#343434"/>
<path d="M116.474 18.4015V27.0272H110.292V1.11304H125.063C126.321 1.11304 127.457 1.35984 128.469 1.85344C129.481 2.32237 130.344 2.95171 131.06 3.74148C131.776 4.53124 132.331 5.45675 132.726 6.518C133.121 7.55457 133.318 8.62815 133.318 9.73876C133.318 10.8494 133.121 11.9353 132.726 12.9965C132.331 14.0331 131.776 14.9586 131.06 15.7731C130.344 16.5628 129.481 17.2045 128.469 17.6981C127.457 18.167 126.321 18.4015 125.063 18.4015H116.474ZM123.952 13.0706C124.569 13.0706 125.087 12.9595 125.507 12.7374C125.927 12.5153 126.26 12.2438 126.507 11.923C126.778 11.5774 126.976 11.2072 127.099 10.8123C127.222 10.4175 127.284 10.0596 127.284 9.73876C127.284 9.41792 127.222 9.06006 127.099 8.66517C126.976 8.27029 126.778 7.91243 126.507 7.59159C126.26 7.24606 125.927 6.96224 125.507 6.74012C125.087 6.518 124.569 6.40694 123.952 6.40694H116.474V13.0706H123.952Z" fill="#343434"/>
<path d="M136.177 1.11304H142.359V17.439L154.206 1.11304H160.351V27.0272H154.206V10.7013L142.359 27.0272H136.177V1.11304Z" fill="#343434"/>
<path d="M57.9121 33.4764H59.6507V39.2024H61.8578V33.4764H63.5965V39.2024H65.7932V33.4764H67.5318V40.764H57.9121V33.4764Z" fill="#343434"/>
<path d="M68.5699 33.4764H70.3085V36.3289L73.0362 33.4764H75.1496L71.6932 37.1202L75.1496 40.764H73.0362L70.3085 37.9114V40.764H68.5699V33.4764Z" fill="#343434"/>
<path d="M78.1271 40.9722C77.5996 40.9722 77.0999 40.8716 76.6279 40.6703C76.1629 40.469 75.7534 40.1949 75.3994 39.8478C75.0524 39.4939 74.7783 39.0844 74.577 38.6193C74.3757 38.1474 74.2751 37.6477 74.2751 37.1202C74.2751 36.5857 74.3757 36.086 74.577 35.621C74.7783 35.156 75.0524 34.75 75.3994 34.4029C75.7534 34.049 76.1629 33.7713 76.6279 33.57C77.0999 33.3688 77.5996 33.2681 78.1271 33.2681C78.6615 33.2681 79.1613 33.3688 79.6263 33.57C80.0913 33.7713 80.4973 34.049 80.8444 34.4029C81.1983 34.75 81.476 35.156 81.6772 35.621C81.8785 36.086 81.9791 36.5857 81.9791 37.1202C81.9791 37.6477 81.8785 38.1474 81.6772 38.6193C81.476 39.0844 81.1983 39.4939 80.8444 39.8478C80.4973 40.1949 80.0913 40.469 79.6263 40.6703C79.1613 40.8716 78.6615 40.9722 78.1271 40.9722ZM76.0137 37.1202C76.0137 37.4256 76.0657 37.7101 76.1699 37.9739C76.2809 38.2376 76.4301 38.4701 76.6175 38.6714C76.8049 38.8657 77.027 39.0184 77.2838 39.1295C77.5406 39.2405 77.8217 39.2961 78.1271 39.2961C78.4325 39.2961 78.7136 39.2405 78.9704 39.1295C79.2341 39.0184 79.4597 38.8657 79.6471 38.6714C79.8345 38.4701 79.9802 38.2376 80.0844 37.9739C80.1954 37.7101 80.2509 37.4256 80.2509 37.1202C80.2509 36.8148 80.1954 36.5302 80.0844 36.2665C79.9802 36.0027 79.8345 35.7737 79.6471 35.5794C79.4597 35.3781 79.2341 35.2219 78.9704 35.1109C78.7136 34.9998 78.4325 34.9443 78.1271 34.9443C77.8217 34.9443 77.5406 34.9998 77.2838 35.1109C77.027 35.2219 76.8049 35.3781 76.6175 35.5794C76.4301 35.7737 76.2809 36.0027 76.1699 36.2665C76.0657 36.5302 76.0137 36.8148 76.0137 37.1202Z" fill="#343434"/>
<path d="M81.5434 39.3377H81.8244C82.0882 39.3377 82.2756 39.2475 82.3866 39.067C82.5046 38.8866 82.5983 38.6645 82.6677 38.4007L83.8858 33.4764H88.654V40.764H86.9154V35.038H85.1976L84.1461 39.3169C84.035 39.7541 83.8372 40.1046 83.5527 40.3684C83.2681 40.6321 82.8412 40.764 82.2721 40.764H81.5434V39.3377Z" fill="#343434"/>
<path d="M94.2183 39.5876H91.1679L90.689 40.764H88.8983L91.803 33.4764H93.5833L96.4879 40.764H94.6972L94.2183 39.5876ZM93.6665 38.1613L92.6983 35.7772L91.7197 38.1613H93.6665Z" fill="#343434"/>
<path d="M99.405 39.3377H99.6861C99.9498 39.3377 100.137 39.2475 100.248 39.067C100.366 38.8866 100.46 38.6645 100.529 38.4007L101.747 33.4764H106.516V39.2024H107.14V41.9092H105.402V40.764H101.133V41.9092H99.405V39.3377ZM104.777 39.2024V35.038H103.059L102.091 38.9941C102.077 39.0288 102.063 39.0635 102.049 39.0982C102.042 39.1329 102.032 39.1677 102.018 39.2024H104.777Z" fill="#343434"/>
<path d="M107.297 39.3377H107.578C107.842 39.3377 108.03 39.2475 108.141 39.067C108.259 38.8866 108.352 38.6645 108.422 38.4007L109.64 33.4764H114.408V40.764H112.669V35.038H110.952L109.9 39.3169C109.789 39.7541 109.591 40.1046 109.307 40.3684C109.022 40.6321 108.595 40.764 108.026 40.764H107.297V39.3377Z" fill="#343434"/>
<path d="M116.917 38.2654C116.639 38.2098 116.386 38.1092 116.157 37.9635C115.935 37.8108 115.741 37.6303 115.574 37.4221C115.414 37.2069 115.289 36.9709 115.199 36.7141C115.116 36.4504 115.074 36.1797 115.074 35.9021C115.074 35.5898 115.13 35.2879 115.241 34.9963C115.352 34.6979 115.508 34.4376 115.709 34.2155C115.911 33.9934 116.154 33.8164 116.438 33.6846C116.723 33.5458 117.042 33.4764 117.396 33.4764H121.519V40.764H119.79V38.3382H118.853L116.823 40.764H114.824L116.917 38.2654ZM119.79 36.8391V34.9651H117.708C117.535 34.9651 117.389 34.9963 117.271 35.0588C117.153 35.1213 117.056 35.2011 116.98 35.2983C116.91 35.3885 116.858 35.4891 116.823 35.6002C116.789 35.7112 116.771 35.8119 116.771 35.9021C116.771 35.9923 116.789 36.093 116.823 36.204C116.858 36.3151 116.91 36.4192 116.98 36.5163C117.056 36.6066 117.153 36.6829 117.271 36.7454C117.389 36.8078 117.535 36.8391 117.708 36.8391H119.79Z" fill="#343434"/>
<path d="M125.759 39.3377H126.04C126.304 39.3377 126.491 39.2475 126.602 39.067C126.72 38.8866 126.814 38.6645 126.883 38.4007L128.101 33.4764H132.869V39.2024H133.494V41.9092H131.756V40.764H127.487V41.9092H125.759V39.3377ZM131.131 39.2024V35.038H129.413L128.445 38.9941C128.431 39.0288 128.417 39.0635 128.403 39.0982C128.396 39.1329 128.386 39.1677 128.372 39.2024H131.131Z" fill="#343434"/>
<path d="M133.961 33.4764H139.719V35.038H135.7V36.4122H139.51V37.8281H135.7V39.2024H139.719V40.764H133.961V33.4764Z" fill="#343434"/>
<path d="M142.603 35.038H140.136V33.4764H146.799V35.038H144.332V40.764H142.603V35.038Z" fill="#343434"/>
<path d="M147.326 33.4764H153.084V35.038H149.065V36.4122H152.875V37.8281H149.065V39.2024H153.084V40.764H147.326V33.4764Z" fill="#343434"/>
<path d="M153.816 33.4764H155.554V38.0676L158.886 33.4764H160.614V40.764H158.886V36.1728L155.554 40.764H153.816V33.4764ZM159.521 31.8002C159.417 31.9529 159.292 32.0986 159.146 32.2375C159.007 32.3763 158.841 32.5012 158.646 32.6122C158.459 32.7164 158.244 32.7996 158.001 32.8621C157.765 32.9246 157.501 32.9558 157.21 32.9558C156.918 32.9558 156.651 32.9246 156.408 32.8621C156.172 32.7996 155.96 32.7164 155.773 32.6122C155.586 32.5012 155.419 32.3763 155.273 32.2375C155.134 32.0986 155.013 31.9529 154.909 31.8002L155.659 31.1755C155.867 31.356 156.11 31.4948 156.387 31.592C156.672 31.6822 156.946 31.7273 157.21 31.7273C157.473 31.7273 157.744 31.6822 158.022 31.592C158.306 31.4948 158.556 31.356 158.771 31.1755L159.521 31.8002Z" fill="#343434"/>
<defs>
<clipPath id="clip0_31_252">
<path d="M21.665 1.79541H39.7279C40.6128 1.79541 41.3301 2.51276 41.3301 3.39765V25.7984H21.665V1.79541Z" fill="white"/>
</clipPath>
<clipPath id="clip1_31_252">
<path d="M41.3301 21.4604L41.3301 39.5233C41.3301 40.4082 40.6127 41.1255 39.7278 41.1255L17.3271 41.1255L17.3271 21.4604L41.3301 21.4604Z" fill="white"/>
</clipPath>
<clipPath id="clip2_31_252">
<path d="M21.665 41.1255L3.60221 41.1255C2.71732 41.1255 1.99997 40.4081 1.99997 39.5232L1.99997 17.1225L21.665 17.1225L21.665 41.1255Z" fill="white"/>
</clipPath>
<clipPath id="clip3_31_252">
<path d="M2 21.4604L2 3.39762C2 2.51273 2.71735 1.79538 3.60224 1.79538L26.003 1.79538L26.003 21.4605L2 21.4604Z" fill="white"/>
</clipPath>
</defs>
</svg>
