<svg width="40" height="40" viewBox="0 0 40 40" fill="none" xmlns="http://www.w3.org/2000/svg">
<rect x="1.26768" y="1.29136" width="37.4172" height="37.4172" rx="2.19697" stroke="#F0F0F0" stroke-width="1.46465"/>
<g clip-path="url(#clip0_31_2857)">
<path d="M37.6885 17.8853C37.8345 17.8853 37.9529 18.0036 37.9529 18.1496L37.9529 19.7352C37.9529 19.8812 37.8345 19.9995 37.6885 19.9995L31.0102 19.9995C30.7372 19.9995 30.5803 20.4603 30.7307 20.6882C30.9507 21.0215 31.0788 21.4207 31.0789 21.8501C31.0789 23.0181 30.1325 23.9653 28.9646 23.9653C27.7966 23.9653 26.8494 23.0181 26.8494 21.8501C26.8494 21.4206 26.9777 21.0212 27.1979 20.6878C27.3484 20.46 27.1916 19.9995 26.9186 19.9995L20.2407 19.9995C20.0947 19.9995 19.9763 19.8812 19.9763 19.7352L19.9763 18.1496C19.9763 18.0036 20.0947 17.8853 20.2407 17.8853L37.6885 17.8853Z" fill="#FF6A14"/>
<path d="M37.9529 19.9969C37.9529 19.9978 37.9525 19.9986 37.9519 19.9993C37.9513 19.9999 37.9504 20.0002 37.9495 20.0002H19.9789C19.9779 20.0002 19.977 19.9997 19.9766 19.9988C19.9764 19.9985 19.9763 19.9981 19.9763 19.9977V13.0573C19.9763 12.7843 20.4369 12.6276 20.6648 12.778C20.9981 12.9981 21.3974 13.1262 21.8269 13.1262C22.9948 13.1262 23.9421 12.1799 23.9421 11.012C23.9421 9.84398 22.9949 8.89676 21.8269 8.89673C21.3973 8.89673 20.9978 9.02506 20.6644 9.24536C20.4366 9.39585 19.9763 9.23918 19.9763 8.96619V2.02535C19.9763 2.02491 19.9765 2.02448 19.9768 2.02417C19.9771 2.02386 19.9775 2.02368 19.978 2.02368H37.6885C37.8345 2.02368 37.9529 2.14204 37.9529 2.28804V19.9969Z" fill="#FF6A14"/>
</g>
<g clip-path="url(#clip1_31_2857)">
<path d="M22.0911 37.7122C22.0911 37.8582 21.9727 37.9766 21.8267 37.9766L20.2402 37.9766C20.0942 37.9766 19.9758 37.8582 19.9758 37.7122L19.9758 31.0337C19.9758 30.7608 19.5159 30.6041 19.2882 30.7544C18.9549 30.9744 18.5556 31.1024 18.1262 31.1025C16.9583 31.1025 16.0111 30.1562 16.011 28.9883C16.011 27.8203 16.9582 26.873 18.1262 26.873C18.5557 26.8731 18.9551 27.0014 19.2885 27.2216C19.5162 27.3719 19.9758 27.2154 19.9758 26.9425L19.9758 20.2644C19.9758 20.1184 20.0942 20 20.2402 20L21.8267 20C21.9727 20 22.0911 20.1184 22.0911 20.2644L22.0911 37.7122Z" fill="#7AD97D"/>
<path d="M19.9794 37.9766C19.9785 37.9766 19.9777 37.9762 19.977 37.9756C19.9764 37.975 19.9761 37.9741 19.9761 37.9732L19.9761 20.0026C19.9761 20.0016 19.9766 20.0007 19.9775 20.0003C19.9778 20.0001 19.9782 20 19.9786 20L26.919 20C27.1921 20 27.3488 20.4606 27.1984 20.6884C26.9782 21.0217 26.8501 21.421 26.8501 21.8506C26.8502 23.0185 27.7965 23.9657 28.9644 23.9658C30.1323 23.9658 31.0795 23.0185 31.0796 21.8506C31.0796 21.421 30.9513 21.0215 30.731 20.6881C30.5805 20.4603 30.7372 20 31.0101 20L37.951 20C37.9514 20 37.9518 20.0002 37.9521 20.0005C37.9525 20.0008 37.9526 20.0012 37.9526 20.0017L37.9526 37.7122C37.9526 37.8582 37.8343 37.9766 37.6883 37.9766L19.9794 37.9766Z" fill="#7AD97D"/>
</g>
<g clip-path="url(#clip2_31_2857)">
<path d="M2.26411 22.1145C2.11811 22.1145 1.99976 21.9961 1.99976 21.8501L1.99976 20.2646C1.99976 20.1186 2.11811 20.0002 2.26411 20.0002L8.94247 20.0002C9.21552 20.0002 9.37234 19.5395 9.22193 19.3116C9.00193 18.9783 8.87385 18.5791 8.87378 18.1497C8.87378 16.9817 9.82012 16.0345 10.988 16.0344C12.156 16.0344 13.1033 16.9817 13.1033 18.1497C13.1032 18.5792 12.9749 18.9785 12.7547 19.3119C12.6043 19.5397 12.761 20.0002 13.034 20.0002L19.712 20.0002C19.858 20.0002 19.9763 20.1186 19.9763 20.2646L19.9763 21.8501C19.9763 21.9961 19.858 22.1145 19.712 22.1145L2.26411 22.1145Z" fill="#FFC945"/>
<path d="M1.99976 20.0028C1.99976 20.002 2.00011 20.0011 2.00073 20.0005C2.00136 19.9999 2.00221 19.9995 2.00309 19.9995L19.9738 19.9995C19.9747 19.9995 19.9756 20.0001 19.976 20.0009C19.9762 20.0013 19.9763 20.0017 19.9763 20.0021L19.9763 26.9425C19.9763 27.2155 19.5157 27.3722 19.2879 27.2218C18.9546 27.0017 18.5553 26.8735 18.1257 26.8735C16.9579 26.8736 16.0116 27.8199 16.0115 28.9878C16.0115 30.1557 16.9578 31.1029 18.1257 31.103C18.5554 31.103 18.9548 30.9747 19.2883 30.7543C19.516 30.6039 19.9763 30.7605 19.9763 31.0335L19.9763 37.9744C19.9763 37.9748 19.9761 37.9753 19.9758 37.9756C19.9755 37.9759 19.9751 37.9761 19.9747 37.9761L2.26411 37.9761C2.11811 37.9761 1.99976 37.8577 1.99976 37.7117L1.99976 20.0028Z" fill="#FFC945"/>
</g>
<g clip-path="url(#clip3_31_2857)">
<path d="M17.8616 2.28779C17.8616 2.14179 17.9799 2.02344 18.1259 2.02344L19.7115 2.02344C19.8575 2.02344 19.9758 2.14179 19.9758 2.28779L19.9758 8.96621C19.9758 9.23925 20.4365 9.39603 20.6644 9.24561C20.9977 9.02558 21.3969 8.89749 21.8264 8.89746C22.9944 8.89746 23.9416 9.84377 23.9417 11.0117C23.9417 12.1797 22.9944 13.127 21.8264 13.127C21.3968 13.1269 20.9974 12.9986 20.664 12.7783C20.4362 12.6279 19.9758 12.7846 19.9758 13.0576L19.9758 19.7356C19.9758 19.8816 19.8575 20 19.7115 20L18.1259 20C17.9799 20 17.8616 19.8816 17.8616 19.7356L17.8616 2.28779Z" fill="white"/>
<path d="M19.9732 2.02344C19.9741 2.02344 19.975 2.02379 19.9756 2.02441C19.9762 2.02504 19.9766 2.02589 19.9766 2.02677L19.9766 19.9974C19.9766 19.9984 19.976 19.9993 19.9751 19.9997C19.9748 19.9999 19.9744 20 19.974 20L13.0337 20C12.7606 20 12.6039 19.5394 12.7543 19.3115C12.9744 18.9782 13.1025 18.579 13.1025 18.1494C13.1025 16.9815 12.1562 16.0342 10.9883 16.0342C9.8203 16.0342 8.87308 16.9814 8.87305 18.1494C8.87305 18.579 9.00139 18.9785 9.2217 19.3119C9.3722 19.5397 9.21553 20 8.94254 20L2.00167 20C2.00122 20 2.0008 19.9998 2.00049 19.9995C2.00018 19.9992 2 19.9988 2 19.9983L2 2.28779C2 2.14179 2.11836 2.02344 2.26436 2.02344L19.9732 2.02344Z" fill="white"/>
</g>
<defs>
<clipPath id="clip0_31_2857">
<path d="M19.9763 2.02368H36.488C37.2969 2.02368 37.9526 2.67943 37.9526 3.48833V23.9653H19.9763V2.02368Z" fill="white"/>
</clipPath>
<clipPath id="clip1_31_2857">
<path d="M37.9526 20L37.9526 36.5117C37.9526 37.3206 37.2969 37.9763 36.488 37.9763L16.011 37.9763L16.011 20L37.9526 20Z" fill="white"/>
</clipPath>
<clipPath id="clip2_31_2857">
<path d="M19.9763 37.9761L3.46466 37.9761C2.65576 37.9761 2.00002 37.3203 2.00002 36.5114L2.00002 16.0344L19.9763 16.0344L19.9763 37.9761Z" fill="white"/>
</clipPath>
<clipPath id="clip3_31_2857">
<path d="M2 20L2 3.48835C2 2.67945 2.65575 2.0237 3.46465 2.0237L23.9417 2.0237L23.9417 20L2 20Z" fill="white"/>
</clipPath>
</defs>
</svg>
