<svg width="25" height="25" viewBox="0 0 25 25" fill="none" xmlns="http://www.w3.org/2000/svg">
<rect width="24" height="24" transform="translate(0.638672 0.975586)" fill="white"/>
<path d="M19.5375 16.2174L17.3056 15.9467C16.7695 15.8814 16.2423 16.0774 15.8644 16.4787L14.2476 18.1959C11.7607 16.852 9.72208 14.6961 8.45671 12.0456L10.0824 10.3191C10.4602 9.91774 10.6448 9.35778 10.5832 8.78848L10.3284 6.43663C10.223 5.49402 9.47604 4.78473 8.57973 4.78473H7.05952C6.06655 4.78473 5.24054 5.66201 5.30206 6.71661C5.76779 14.6868 11.7695 21.0517 19.2651 21.5464C20.2581 21.6117 21.0841 20.7344 21.0841 19.6798V18.0652C21.0929 17.1226 20.4251 16.3293 19.5375 16.2174Z" fill="#FF6A14" stroke="#FF6A14" stroke-width="1.0838"/>
</svg>
