<svg width="24" height="25" viewBox="0 0 24 25" fill="none" xmlns="http://www.w3.org/2000/svg">
<path d="M14.828 6.00096C14.9388 5.68791 14.999 5.35099 14.999 5C14.999 3.34315 13.6559 2 11.999 2C10.3422 2 8.99904 3.34315 8.99904 5C8.99904 5.35099 9.05932 5.68791 9.17008 6.00096C6.88532 6.0093 5.66601 6.09039 4.87772 6.87868C4.08951 7.66689 4.00836 8.88603 4 11.1704C4.31251 11.06 4.64876 11 4.99904 11C6.6559 11 7.99904 12.3431 7.99904 14C7.99904 15.6569 6.6559 17 4.99904 17C4.64876 17 4.31251 16.94 4 16.8296C4.00836 19.114 4.08951 20.3331 4.87772 21.1213C5.66593 21.9095 6.88508 21.9907 9.16941 21.999C9.05908 21.6865 8.99904 21.3503 8.99904 21C8.99904 19.3431 10.3422 18 11.999 18C13.6559 18 14.999 19.3431 14.999 21C14.999 21.3503 14.939 21.6865 14.8287 21.999C17.113 21.9907 18.3322 21.9095 19.1204 21.1213C19.9086 20.333 19.9897 19.1137 19.9981 16.829C19.9981 16.829 19.9981 15.6569 19.9981 14C19.9981 12.3431 19.9981 11.171 19.9981 11.171C19.9897 8.88627 19.9086 7.66697 19.1204 6.87868C18.3321 6.09039 17.1128 6.0093 14.828 6.00096Z" fill="white" stroke="white" stroke-width="1.5" stroke-linejoin="round"/>
</svg>
