<svg width="42" height="42" viewBox="0 0 42 42" fill="none" xmlns="http://www.w3.org/2000/svg">
<rect x="0.6" y="0.520654" width="40.8" height="40.8" rx="20.4" fill="#FFF2E0"/>
<rect x="0.6" y="0.520654" width="40.8" height="40.8" rx="20.4" stroke="white" stroke-width="0.8"/>
<path d="M14.9196 20.9119C14.7071 20.4259 14.3103 20.0441 13.8164 19.8507C13.3225 19.6572 12.772 19.6679 12.286 19.8803C11.7999 20.0928 11.4182 20.4896 11.2247 20.9835C11.0313 21.4774 11.0419 22.0279 11.2544 22.5139C11.4944 23.063 11.7278 23.5955 11.959 24.1214C12.9343 26.2739 13.7546 28.3955 14.9603 30.5613C14.9147 30.4721 14.9142 30.4661 14.9068 30.4504C15.0686 30.8344 15.3069 31.3218 15.6116 31.7815C15.955 32.2392 16.2308 32.8067 17.3651 33.3312C17.9297 33.5915 18.9032 33.5969 19.5096 33.284C20.1261 32.9926 20.4503 32.6216 20.6839 32.3364C21.1461 31.7361 21.3374 31.2683 21.5302 30.8008C21.5367 30.7845 21.5434 30.7677 21.5503 30.7506C23.7205 26.0169 26.5671 20.928 29.0137 15.9381C29.4452 15.0812 29.8725 14.2198 30.2947 13.3553C30.5515 12.8295 30.8064 12.3025 31.0594 11.7744C31.1691 11.545 31.2008 11.2809 31.1339 11.0322C31.067 10.7835 30.9091 10.5717 30.6919 10.4417C30.4747 10.3116 30.2134 10.2724 29.9627 10.3309C29.7118 10.3893 29.494 10.5418 29.3436 10.7468C28.9974 11.2192 28.6532 11.6927 28.3109 12.1673C27.7481 12.9476 27.1904 13.731 26.6379 14.5174C23.4207 19.2206 20.364 23.7553 17.8411 29.2534C17.8311 29.2781 17.8213 29.3026 17.8117 29.327C17.7106 29.5912 17.5761 29.8257 17.5525 29.8475C17.5496 29.8596 17.5791 29.7775 17.8431 29.6477C18.0981 29.503 18.6497 29.5096 18.8553 29.6191C19.2648 29.8336 19.0351 29.7522 18.9454 29.5711C18.8196 29.3775 18.7079 29.1727 18.5641 28.8306C18.5552 28.8116 18.5537 28.8033 18.5075 28.7128C17.4582 26.8622 16.5736 24.6186 15.6206 22.5111C15.3907 21.9884 15.1585 21.4586 14.9196 20.9119Z" fill="#FF6A14"/>
</svg>
