<svg width="18" height="18" viewBox="0 0 18 18" fill="none" xmlns="http://www.w3.org/2000/svg">
<path d="M8.58759 12.5635C8.45425 12.5635 8.32925 12.5425 8.21259 12.5005C8.09592 12.4592 7.98759 12.3885 7.88759 12.2885L3.26259 7.6635C3.07925 7.48017 2.99192 7.25083 3.00059 6.9755C3.00859 6.70083 3.10425 6.47183 3.28759 6.2885C3.47092 6.10517 3.70425 6.0135 3.98759 6.0135C4.27092 6.0135 4.50425 6.10517 4.68759 6.2885L8.58759 10.1885L12.5126 6.2635C12.6959 6.08017 12.9253 5.9925 13.2006 6.0005C13.4753 6.00917 13.7043 6.10517 13.8876 6.2885C14.0709 6.47184 14.1626 6.70517 14.1626 6.9885C14.1626 7.27184 14.0709 7.50517 13.8876 7.6885L9.28759 12.2885C9.18759 12.3885 9.07925 12.4592 8.96259 12.5005C8.84592 12.5425 8.72092 12.5635 8.58759 12.5635Z" fill="black"/>
</svg>
