<svg width="40" height="40" viewBox="0 0 40 40" fill="none" xmlns="http://www.w3.org/2000/svg">
<rect y="-0.00488281" width="40" height="40" rx="10" fill="#44B8F6"/>
<path fill-rule="evenodd" clip-rule="evenodd" d="M28.6176 11.1183C28.9004 11.0092 29.2099 10.9716 29.5139 11.0094C29.818 11.0471 30.1054 11.1588 30.3463 11.3328C30.5873 11.5069 30.7729 11.7369 30.8838 11.999C30.9948 12.261 31.027 12.5455 30.9772 12.8229L28.3819 27.2449C28.1301 28.6361 26.4639 29.4338 25.0713 28.7409C23.9063 28.1612 22.1761 27.268 20.6197 26.336C19.8416 25.8695 17.4579 24.3756 17.7509 23.3126C18.0026 22.4037 22.0078 18.9882 24.2965 16.9575C25.1948 16.1597 24.7852 15.6995 23.7244 16.4334C21.0901 18.2554 16.8606 21.0261 15.4622 21.8061C14.2286 22.4938 13.5854 22.6112 12.8164 22.4938C11.4135 22.28 10.1123 21.9487 9.05038 21.5451C7.61537 20.9999 7.68518 19.1926 9.04924 18.6663L28.6176 11.1183Z" fill="white"/>
</svg>
