<svg width="40" height="40" viewBox="0 0 40 40" fill="none" xmlns="http://www.w3.org/2000/svg">
<rect y="-0.00488281" width="40" height="40" rx="10" fill="#7AD97D"/>
<path fill-rule="evenodd" clip-rule="evenodd" d="M20 9.99512C14.477 9.99512 10 14.4721 10 19.9951C10 21.8851 10.525 23.6551 11.438 25.1631L10.546 28.1951C10.4948 28.3692 10.4914 28.5539 10.5362 28.7297C10.5811 28.9055 10.6724 29.066 10.8008 29.1943C10.9291 29.3227 11.0896 29.414 11.2654 29.4589C11.4413 29.5037 11.6259 29.5003 11.8 29.4491L14.832 28.5571C16.3907 29.5002 18.1782 29.9976 20 29.9951C25.523 29.9951 30 25.5181 30 19.9951C30 14.4721 25.523 9.99512 20 9.99512ZM17.738 22.2581C19.761 24.2801 21.692 24.5471 22.374 24.5721C23.411 24.6101 24.421 23.8181 24.814 22.8991C24.8636 22.7848 24.8816 22.6592 24.8661 22.5356C24.8507 22.4119 24.8023 22.2947 24.726 22.1961C24.178 21.4961 23.437 20.9931 22.713 20.4931C22.5618 20.3886 22.3761 20.3467 22.1947 20.3761C22.0133 20.4056 21.8503 20.5041 21.74 20.6511L21.14 21.5661C21.1085 21.6153 21.0593 21.6506 21.0026 21.6647C20.9459 21.6788 20.8859 21.6708 20.835 21.6421C20.428 21.4091 19.835 21.0131 19.409 20.5871C18.983 20.1611 18.611 19.5951 18.402 19.2141C18.3761 19.1657 18.3686 19.1096 18.3809 19.056C18.3932 19.0025 18.4245 18.9553 18.469 18.9231L19.393 18.2371C19.5249 18.1225 19.61 17.9633 19.6321 17.79C19.6542 17.6166 19.6118 17.4412 19.513 17.2971C19.065 16.6411 18.543 15.8071 17.786 15.2541C17.6883 15.1833 17.5739 15.1392 17.4539 15.126C17.334 15.1129 17.2127 15.1312 17.102 15.1791C16.182 15.5731 15.386 16.5831 15.424 17.6221C15.449 18.3041 15.716 20.2351 17.738 22.2581Z" fill="white"/>
</svg>
