<svg width="24" height="25" viewBox="0 0 24 25" fill="none" xmlns="http://www.w3.org/2000/svg">
<path d="M0 12.5358C0 9.14845 1.0087 6.30161 3.02609 3.9953C5.11304 1.61692 8.10435 0.427734 12 0.427734C15.8957 0.427734 18.8522 1.61692 20.8696 3.9953C22.9565 6.30161 24 9.14845 24 12.5358C24 15.8512 22.9565 18.662 20.8696 20.9683C18.8522 23.2746 15.8957 24.4277 12 24.4277C8.10435 24.4277 5.11304 23.2746 3.02609 20.9683C1.0087 18.662 0 15.8512 0 12.5358Z" fill="#FF4545"/>
<g clip-path="url(#clip0_31_944)">
<path d="M12.0867 14.0167L9.86693 19.0001H8.24951L10.687 13.6733C9.54193 13.0916 8.77764 12.0386 8.77764 10.0907C8.77493 7.36399 10.5028 6.00061 12.5579 6.00061H14.6477V19.0006H13.2491V14.0173L12.0867 14.0167ZM13.2496 7.1809H12.5032C11.3766 7.1809 10.284 7.92732 10.284 10.0907C10.284 12.1805 11.2845 12.8532 12.5032 12.8532H13.2496V7.1809Z" fill="white"/>
</g>
<defs>
<clipPath id="clip0_31_944">
<rect width="13" height="13" fill="white" transform="translate(5 6)"/>
</clipPath>
</defs>
</svg>
